<svg xmlns="http://www.w3.org/2000/svg" style="display:none">
  <symbol id="arrow-left" viewBox="0 0 24 24"><path d="M19 12H5" fill="none" stroke="currentColor" stroke-width="2" stroke-linecap="round"/><path d="M12 19l-7-7 7-7" fill="none" stroke="currentColor" stroke-width="2" stroke-linecap="round" stroke-linejoin="round"/></symbol>
  <symbol id="heart" viewBox="0 0 24 24"><path d="M20.8 4.6a5.5 5.5 0 0 0-7.8 0L12 5.6l-1-1a5.5 5.5 0 0 0-7.8 7.8l1 1L12 21l7.8-7.6 1-1a5.5 5.5 0 0 0 0-7.8Z" fill="none" stroke="currentColor" stroke-width="2" stroke-linejoin="round"/></symbol>
  <symbol id="share" viewBox="0 0 24 24"><path d="M4 12v7a1 1 0 0 0 1 1h14a1 1 0 0 0 1-1v-7" fill="none" stroke="currentColor" stroke-width="2" stroke-linecap="round"/><path d="M12 16V3" fill="none" stroke="currentColor" stroke-width="2" stroke-linecap="round"/><path d="m7 8 5-5 5 5" fill="none" stroke="currentColor" stroke-width="2" stroke-linecap="round" stroke-linejoin="round"/></symbol>
  <symbol id="search" viewBox="0 0 24 24"><path d="m21 21-4.35-4.35" fill="none" stroke="currentColor" stroke-width="2" stroke-linecap="round"/><circle cx="11" cy="11" r="7" fill="none" stroke="currentColor" stroke-width="2"/></symbol>
  <symbol id="sliders" viewBox="0 0 24 24"><path d="M4 6h10M18 6h2M4 12h2M10 12h10M4 18h10M18 18h2" fill="none" stroke="currentColor" stroke-width="2" stroke-linecap="round"/><circle cx="16" cy="6" r="2" fill="none" stroke="currentColor" stroke-width="2"/><circle cx="8" cy="12" r="2" fill="none" stroke="currentColor" stroke-width="2"/><circle cx="16" cy="18" r="2" fill="none" stroke="currentColor" stroke-width="2"/></symbol>
  <symbol id="clock" viewBox="0 0 24 24"><circle cx="12" cy="12" r="9" fill="none" stroke="currentColor" stroke-width="2"/><path d="M12 7v5l3 2" fill="none" stroke="currentColor" stroke-width="2" stroke-linecap="round"/></symbol>
  <symbol id="card" viewBox="0 0 24 24"><rect x="3" y="5" width="18" height="14" rx="2" fill="none" stroke="currentColor" stroke-width="2"/><path d="M3 10h18" fill="none" stroke="currentColor" stroke-width="2"/><path d="M7 15h3" fill="none" stroke="currentColor" stroke-width="2" stroke-linecap="round"/></symbol>
  <symbol id="bag" viewBox="0 0 24 24"><path d="M6 8h12l1 13H5L6 8Z" fill="none" stroke="currentColor" stroke-width="2" stroke-linejoin="round"/><path d="M9 8V6a3 3 0 0 1 6 0v2" fill="none" stroke="currentColor" stroke-width="2" stroke-linecap="round"/></symbol>
  <symbol id="home" viewBox="0 0 24 24"><path d="M3 10.5 12 3l9 7.5" fill="none" stroke="currentColor" stroke-width="2" stroke-linecap="round" stroke-linejoin="round"/><path d="M5 10v10h14V10" fill="none" stroke="currentColor" stroke-width="2" stroke-linejoin="round"/></symbol>
  <symbol id="orders" viewBox="0 0 24 24"><rect x="6" y="4" width="12" height="16" rx="2" fill="none" stroke="currentColor" stroke-width="2"/><path d="M9 8h6M9 12h6M9 16h4" fill="none" stroke="currentColor" stroke-width="2" stroke-linecap="round"/></symbol>
  <symbol id="user" viewBox="0 0 24 24"><circle cx="12" cy="8" r="4" fill="none" stroke="currentColor" stroke-width="2"/><path d="M4 21a8 8 0 0 1 16 0" fill="none" stroke="currentColor" stroke-width="2" stroke-linecap="round"/></symbol>
  <symbol id="trash" viewBox="0 0 24 24"><path d="M4 7h16M10 11v6M14 11v6M6 7l1 14h10l1-14M9 7V4h6v3" fill="none" stroke="currentColor" stroke-width="2" stroke-linecap="round" stroke-linejoin="round"/></symbol>
  <symbol id="plus" viewBox="0 0 24 24"><path d="M12 5v14M5 12h14" fill="none" stroke="currentColor" stroke-width="2.4" stroke-linecap="round"/></symbol>
  <symbol id="minus" viewBox="0 0 24 24"><path d="M5 12h14" fill="none" stroke="currentColor" stroke-width="2.4" stroke-linecap="round"/></symbol>
  <symbol id="chev" viewBox="0 0 24 24"><path d="m9 18 6-6-6-6" fill="none" stroke="currentColor" stroke-width="2" stroke-linecap="round" stroke-linejoin="round"/></symbol>
  <symbol id="pin" viewBox="0 0 24 24"><path d="M12 21s7-6.2 7-12A7 7 0 1 0 5 9c0 5.8 7 12 7 12Z" fill="none" stroke="currentColor" stroke-width="2"/><circle cx="12" cy="9" r="2" fill="none" stroke="currentColor" stroke-width="2"/></symbol>
  <symbol id="info" viewBox="0 0 24 24"><circle cx="12" cy="12" r="9" fill="none" stroke="currentColor" stroke-width="2"/><path d="M12 11v5M12 8h.01" fill="none" stroke="currentColor" stroke-width="2" stroke-linecap="round"/></symbol>
  <symbol id="check" viewBox="0 0 24 24"><path d="m5 12 4 4L19 6" fill="none" stroke="currentColor" stroke-width="2.5" stroke-linecap="round" stroke-linejoin="round"/></symbol>
  <symbol id="truck" viewBox="0 0 24 24"><path d="M3 7h11v9H3zM14 10h4l3 3v3h-7z" fill="none" stroke="currentColor" stroke-width="2" stroke-linejoin="round"/><circle cx="7" cy="18" r="2" fill="none" stroke="currentColor" stroke-width="2"/><circle cx="18" cy="18" r="2" fill="none" stroke="currentColor" stroke-width="2"/></symbol>
  <symbol id="wallet" viewBox="0 0 24 24"><path d="M4 7h16a1 1 0 0 1 1 1v11H4a2 2 0 0 1-2-2V6a2 2 0 0 1 2-2h14" fill="none" stroke="currentColor" stroke-width="2"/><path d="M16 12h5v4h-5a2 2 0 0 1 0-4Z" fill="none" stroke="currentColor" stroke-width="2"/></symbol>
  <symbol id="cash" viewBox="0 0 24 24"><rect x="3" y="6" width="18" height="12" rx="2" fill="none" stroke="currentColor" stroke-width="2"/><circle cx="12" cy="12" r="3" fill="none" stroke="currentColor" stroke-width="2"/><path d="M6 9h.01M18 15h.01" fill="none" stroke="currentColor" stroke-width="2" stroke-linecap="round"/></symbol>
  <symbol id="phone" viewBox="0 0 24 24"><path d="M22 16.9v3a2 2 0 0 1-2.2 2 19.8 19.8 0 0 1-8.6-3.1 19.5 19.5 0 0 1-6-6A19.8 19.8 0 0 1 2.1 4.2 2 2 0 0 1 4.1 2h3a2 2 0 0 1 2 1.7c.1 1 .4 2 .7 2.9a2 2 0 0 1-.5 2.1L8.1 9.9a16 16 0 0 0 6 6l1.2-1.2a2 2 0 0 1 2.1-.5c.9.3 1.9.6 2.9.7a2 2 0 0 1 1.7 2Z" fill="none" stroke="currentColor" stroke-width="2" stroke-linejoin="round"/></symbol>
  <symbol id="mail" viewBox="0 0 24 24"><rect x="3" y="5" width="18" height="14" rx="2" fill="none" stroke="currentColor" stroke-width="2"/><path d="m3 7 9 6 9-6" fill="none" stroke="currentColor" stroke-width="2" stroke-linejoin="round"/></symbol>
</svg>
